<?xml version="1.0" encoding="UTF-8"?>
<svg width="311px" height="78px" viewBox="0 0 311 78" version="1.1" xmlns="http://www.w3.org/2000/svg" xmlns:xlink="http://www.w3.org/1999/xlink">
    <!-- Generator: Sketch 49.3 (51167) - http://www.bohemiancoding.com/sketch -->
    <title>Hansen_Law_logo</title>
    <desc>Created with Sketch.</desc>
    <defs></defs>
    <g id="Page-1" stroke="none" stroke-width="1" fill="none" fill-rule="evenodd">
        <g id="Artboard-Copy-5" transform="translate(-678.000000, -68.000000)" fill="#2E3B4E">
            <path d="M678,100.545175 L692.506146,100.545175 L692.359124,99.7340799 L690.937914,99.5313062 C688.732587,99.3285325 688.438544,99.1764523 688.438544,98.7709049 L688.438544,84.9822951 L702.160574,84.9822951 L702.160574,98.6188247 C702.160574,99.024372 701.572487,99.3285325 700.053262,99.5313062 L698.190986,99.7340799 L698.043965,100.545175 L712.55011,100.545175 L712.403089,99.7340799 L711.030886,99.5313062 C708.776552,99.3285325 708.531516,99.1764523 708.531516,98.7709049 L708.531516,70.788138 C708.531516,70.3825907 709.119603,70.0784302 710.638828,69.8756565 L712.452096,69.6728828 L712.599118,68.8617881 L698.092972,68.8617881 L698.239994,69.6728828 L699.661204,69.8756565 C701.86653,70.0784302 702.160574,70.2305104 702.160574,70.6360578 L702.160574,83.8670399 L688.438544,83.8670399 L688.438544,70.788138 C688.438544,70.4332841 689.026631,70.0784302 690.594863,69.8756565 L692.408131,69.6728828 L692.555153,68.8617881 L678.049007,68.8617881 L678.196029,69.6728828 L679.568232,69.8756565 C681.822565,70.0784302 682.116609,70.2305104 682.116609,70.6360578 L682.116609,98.6188247 C682.116609,99.024372 681.528522,99.3285325 679.96029,99.5313062 L678.147022,99.7340799 L678,100.545175 Z M722.400567,87.87182 L721.028364,92.0286803 C719.019067,98.1625839 718.823038,99.0750654 722.694611,99.5313062 L723.821777,99.6833865 L723.968799,100.545175 L713.040183,100.545175 L713.187205,99.6833865 L714.118342,99.5313062 C717.00977,99.0750654 717.499842,98.4667444 720.636306,89.4940094 L726.223133,73.4241958 L725.831075,71.7006195 C727.350299,71.2443788 729.65364,69.571496 730.290734,68 L731.172865,68 L739.896155,94.3605775 C741.268358,98.5174378 742.052474,99.3285325 743.963757,99.4806128 L745.433974,99.6833865 L745.580996,100.545175 L730.388749,100.545175 L730.535771,99.6833865 L731.956981,99.5313062 C734.309329,99.3285325 734.358336,98.2132773 733.231169,94.7154315 L731.07485,87.87182 L722.400567,87.87182 Z M730.7318,86.7565648 L727.007249,74.8436115 L726.81122,74.8436115 L722.792625,86.7565648 L730.7318,86.7565648 Z M773.221084,100.849335 L774.936338,100.849335 L775.08336,74.539451 C775.08336,71.0416051 775.867476,70.0784302 778.170816,69.8756565 L779.543019,69.6728828 L779.690041,68.8617881 L768.66341,68.8617881 L768.810432,69.6728828 L770.231642,69.8756565 C773.074062,70.1291236 773.858178,70.9402183 773.858178,74.2859839 L773.907186,91.0148119 L773.760164,91.0148119 L756.705641,68.8617881 L745.777025,68.8617881 L745.924047,69.6728828 L746.953199,69.9770433 C748.864482,70.3318972 750.236685,71.7006195 751.216829,73.4748892 L751.069808,94.9182051 C751.069808,98.3653576 750.334699,99.3285325 747.982351,99.5313062 L746.610148,99.7340799 L746.463126,100.545175 L757.538765,100.545175 L757.391743,99.7340799 L755.921525,99.5313062 C753.128112,99.2778391 752.294989,98.5174378 752.294989,95.1716722 L752.245982,74.1339036 L752.393003,74.1339036 L773.221084,100.849335 Z M792.431926,101.204189 C799.439962,101.204189 803.997636,96.236234 803.997636,90.8120382 C803.997636,84.9822951 800.077056,82.7010913 794.735266,80.7747414 C790.814686,79.3553257 787.629215,77.9866034 787.629215,74.3366773 C787.629215,71.5485393 789.834541,69.3180289 793.216042,69.3180289 C795.225339,69.3180289 796.695556,69.8756565 797.87173,70.6360578 L801.400252,77.93591 L802.478412,77.93591 L802.33139,68.5576276 L800.175071,69.2673355 C798.41081,68.7604013 796.107469,68.2027737 793.412071,68.2027737 C786.943114,68.2027737 782.875512,72.5117142 782.875512,77.5810561 C782.875512,82.903865 786.796092,84.9822951 791.598802,86.7565648 C795.862433,88.2773673 799.145919,89.7981699 799.145919,93.9550302 C799.145919,97.5035695 796.842578,100.03824 792.725969,100.088934 C789.589505,100.088934 787.18815,98.7202115 785.423889,95.9320735 L783.365585,90.9134251 L782.189411,90.9134251 L782.72849,99.5313062 C785.423889,100.545175 788.658367,101.254882 792.431926,101.204189 Z M807.036086,100.545175 L833.254964,100.545175 L834.529152,90.1530238 L833.254964,90.1530238 L832.764891,91.6738264 C831.00063,96.5910879 828.354239,99.4299194 821.591239,99.4806128 L817.523637,99.3285325 L817.523637,84.8809083 L818.993854,84.9316017 C823.551529,85.1343754 824.678695,85.9454701 824.923731,88.9363818 L825.11976,90.5078777 L826.099905,90.5585712 L827.325087,78.3921508 L826.295934,78.3921508 L825.756855,80.0143401 C824.923731,82.8024782 823.208478,83.6642663 819.336905,83.8163465 L817.523637,83.8670399 L817.523637,69.9770433 L820.807123,69.9263499 C827.325087,69.8756565 829.677435,71.751313 831.245667,77.5810561 L831.686732,79.2539389 L832.96092,79.2539389 L832.61787,68.8617881 L807.085093,68.8617881 L807.232115,69.6728828 L808.604318,69.8756565 C810.858651,70.0784302 811.152695,70.2305104 811.152695,70.6360578 L811.152695,98.6188247 C811.152695,99.024372 810.5156,99.3285325 808.947368,99.5313062 L807.183107,99.7340799 L807.036086,100.545175 Z M864.031516,100.849335 L865.74677,100.849335 L865.893791,74.539451 C865.893791,71.0416051 866.677907,70.0784302 868.981248,69.8756565 L870.353451,69.6728828 L870.500473,68.8617881 L859.473842,68.8617881 L859.620864,69.6728828 L861.042074,69.8756565 C863.884494,70.1291236 864.66861,70.9402183 864.66861,74.2859839 L864.717617,91.0148119 L864.570596,91.0148119 L847.516073,68.8617881 L836.587457,68.8617881 L836.734478,69.6728828 L837.763631,69.9770433 C839.674913,70.3318972 841.047116,71.7006195 842.027261,73.4748892 L841.88024,94.9182051 C841.88024,98.3653576 841.145131,99.3285325 838.792783,99.5313062 L837.42058,99.7340799 L837.273558,100.545175 L848.349196,100.545175 L848.202175,99.7340799 L846.731957,99.5313062 C843.938544,99.2778391 843.105421,98.5174378 843.105421,95.1716722 L843.056413,74.1339036 L843.203435,74.1339036 L864.031516,100.849335 Z M880.939017,100.545175 L905.393634,100.545175 L906.814844,89.3419291 L905.540656,89.3419291 L904.952569,91.0148119 C902.355184,97.0980221 900.29688,99.5313062 894.170974,99.5313062 L891.377561,99.3285325 L891.377561,70.788138 C891.377561,70.3825907 892.112669,70.0277367 893.53388,69.9263499 L895.935235,69.6728828 L896.082257,68.8617881 L880.988024,68.8617881 L881.135046,69.6728828 L882.556256,69.8756565 C884.810589,70.0784302 885.055626,70.2812038 885.055626,70.6867512 L885.055626,98.6188247 C885.055626,98.9736786 884.565553,99.3285325 882.948314,99.4806128 L881.086038,99.7340799 L880.939017,100.545175 Z M916.86133,87.87182 L915.489127,92.0286803 C913.47983,98.1625839 913.283801,99.0750654 917.155373,99.5313062 L918.28254,99.6833865 L918.429562,100.545175 L907.500945,100.545175 L907.647967,99.6833865 L908.579105,99.5313062 C911.470533,99.0750654 911.960605,98.4667444 915.097069,89.4940094 L920.683895,73.4241958 L920.291837,71.7006195 C921.811062,71.2443788 924.114403,69.571496 924.751497,68 L925.633627,68 L934.356918,94.3605775 C935.729121,98.5174378 936.513237,99.3285325 938.424519,99.4806128 L939.894737,99.6833865 L940.041759,100.545175 L924.849512,100.545175 L924.996533,99.6833865 L926.417743,99.5313062 C928.770091,99.3285325 928.819099,98.2132773 927.691932,94.7154315 L925.535613,87.87182 L916.86133,87.87182 Z M925.192562,86.7565648 L921.468011,74.8436115 L921.271982,74.8436115 L917.253388,86.7565648 L925.192562,86.7565648 Z M954.400882,101.102802 L944.893476,74.7929181 C943.423259,70.8388314 942.982194,70.1291236 940.972896,69.9263499 L939.551686,69.7235762 L939.404664,68.8617881 L954.400882,68.8617881 L954.253861,69.7235762 L952.538607,69.8249631 C950.186259,69.9770433 950.186259,70.6867512 951.166404,73.6776629 L957.929404,93.2453223 L958.125433,93.2453223 L963.957296,77.2768956 L963.124173,74.7929181 C961.800977,71.0922985 961.21289,70.0784302 959.301607,69.9263499 L957.684368,69.7235762 L957.537346,68.8617881 L972.729593,68.8617881 L972.582572,69.7235762 L970.916325,69.8249631 C968.563977,69.9770433 968.367948,70.6360578 969.446108,73.8297431 L975.768043,92.9918552 L975.964072,92.9918552 L980.815789,78.6456178 C983.11913,71.751313 983.315159,70.4332841 979.100536,69.8756565 L977.875355,69.7235762 L977.728333,68.8617881 L989,68.8617881 L988.852978,69.7235762 L987.970848,69.8756565 C985.030413,70.3825907 984.638355,71.1936854 981.991963,78.7470047 L974.248818,101.102802 L972.337535,101.102802 L964.692405,78.8483915 L964.545383,78.8483915 L956.361172,101.102802 L954.400882,101.102802 Z M679.075384,140.512631 L679.152266,140.088487 L680.100475,139.982451 C680.920548,139.876415 681.228075,139.71736 681.228075,139.505288 L681.228075,124.872305 C681.228075,124.660233 681.074312,124.607215 679.895457,124.47467 L679.177893,124.395143 L679.101011,123.944489 L685.99475,123.944489 C690.863933,123.944489 692.606588,125.375977 692.606588,127.629244 C692.606588,129.590912 690.940815,130.916363 687.993678,131.393526 L687.993678,131.473053 C691.376479,131.738143 693.375407,133.46123 693.375407,135.873552 C693.375407,138.656999 691.094579,140.512631 686.199768,140.512631 L679.075384,140.512631 Z M685.917868,140.00896 C685.917868,140.00896 686.302277,139.955942 686.251022,139.955942 C688.35246,139.849906 689.864469,138.206346 689.864469,136.006097 C689.864469,133.46123 687.96805,131.897197 685.533459,131.897197 C685.251558,131.897197 684.713386,131.897197 684.559622,131.950215 L684.559622,139.611324 L685.917868,140.00896 Z M684.559622,131.393526 L685.405322,131.393526 C687.68615,131.393526 689.146905,130.094584 689.146905,127.947352 C689.146905,125.694085 687.711778,124.527688 685.32844,124.527688 L684.559622,124.527688 L684.559622,131.393526 Z M698.731509,133.885374 L698.013945,136.059115 C696.963226,139.266707 696.860717,139.74387 698.885272,139.982451 L699.4747,140.061978 L699.551582,140.512631 L693.836698,140.512631 L693.91358,140.061978 L694.400498,139.982451 C695.912508,139.74387 696.16878,139.425761 697.808926,134.733663 L700.730436,126.330302 L700.525418,125.428995 C701.319864,125.190413 702.524346,124.315616 702.857501,123.493836 L703.318792,123.493836 L707.880448,137.27853 C708.598012,139.45227 709.008048,139.876415 710.007512,139.955942 L710.776331,140.061978 L710.853213,140.512631 L702.908755,140.512631 L702.985637,140.061978 L703.728828,139.982451 C704.958938,139.876415 704.984565,139.293216 704.395138,137.464093 L703.267537,133.885374 L698.731509,133.885374 Z M703.088146,133.302176 L701.140473,127.072554 L701.037964,127.072554 L698.936527,133.302176 L703.088146,133.302176 Z M711.237622,140.512631 L711.314504,140.088487 L712.39085,139.982451 C713.057159,139.902924 713.51845,139.71736 713.51845,139.505288 L713.51845,124.872305 C713.51845,124.660233 713.364686,124.580706 712.185831,124.47467 L711.340131,124.368634 L711.263249,123.944489 L718.900179,123.91798 C723.23119,123.91798 725.409509,125.375977 725.409509,128.106406 C725.409509,130.147602 723.923126,131.738143 721.539789,132.321342 L724.871336,137.755692 C725.922054,139.45227 726.332091,139.876415 727.434064,140.00896 L727.8441,140.088487 L727.946609,140.512631 L722.56488,140.512631 L722.103589,139.584815 L718.285124,132.559923 C717.95197,132.480396 717.157524,132.37436 716.849997,132.241815 L716.849997,139.584815 C716.849997,139.796888 717.234406,139.902924 718.131361,139.982451 L719.053943,140.088487 L719.130825,140.512631 L711.237622,140.512631 Z M718.208242,131.923706 C720.48907,131.844179 721.872944,130.598255 721.872944,128.212443 C721.872944,125.853139 720.437816,124.421652 717.875088,124.47467 C717.823833,124.47467 716.849997,124.501179 716.849997,124.501179 L716.849997,131.711634 C717.157524,131.791161 717.900715,131.923706 718.208242,131.923706 Z M728.356646,140.512631 L728.433528,140.088487 L729.509874,139.982451 C730.176183,139.902924 730.637474,139.71736 730.637474,139.505288 L730.637474,124.872305 C730.637474,124.660233 730.48371,124.580706 729.304855,124.47467 L728.459155,124.368634 L728.382273,123.944489 L736.019203,123.91798 C740.350214,123.91798 742.528533,125.375977 742.528533,128.106406 C742.528533,130.147602 741.04215,131.738143 738.658813,132.321342 L741.99036,137.755692 C743.041078,139.45227 743.451115,139.876415 744.553088,140.00896 L744.963124,140.088487 L745.065633,140.512631 L739.683904,140.512631 L739.222613,139.584815 L735.404148,132.559923 C735.070994,132.480396 734.276548,132.37436 733.969021,132.241815 L733.969021,139.584815 C733.969021,139.796888 734.35343,139.902924 735.250385,139.982451 L736.172967,140.088487 L736.249849,140.512631 L728.356646,140.512631 Z M735.327266,131.923706 C737.608095,131.844179 738.991968,130.598255 738.991968,128.212443 C738.991968,125.853139 737.55684,124.421652 734.994112,124.47467 C734.942857,124.47467 733.969021,124.501179 733.969021,124.501179 L733.969021,131.711634 C734.276548,131.791161 735.019739,131.923706 735.327266,131.923706 Z M745.808825,140.512631 L753.599518,140.512631 L753.522636,140.088487 L752.676936,139.982451 C751.549336,139.876415 751.369945,139.796888 751.369945,139.584815 L751.369945,124.951832 C751.369945,124.766269 751.651845,124.554197 752.497545,124.47467 L753.548264,124.368634 L753.625145,123.944489 L745.808825,123.944489 L745.885706,124.368634 L746.731407,124.47467 C747.910262,124.580706 748.064025,124.660233 748.064025,124.872305 L748.064025,139.505288 C748.064025,139.71736 747.730871,139.902924 746.936425,139.982451 L745.885706,140.088487 L745.808825,140.512631 Z M760.775157,140.857249 C764.439858,140.857249 766.823195,138.259364 766.823195,135.422898 C766.823195,132.37436 764.773013,131.181454 761.979639,130.174111 C759.929457,129.431858 758.263683,128.716114 758.263683,126.807464 C758.263683,125.349468 759.416911,124.18307 761.185193,124.18307 C762.235912,124.18307 763.00473,124.47467 763.619785,124.872305 L765.464949,128.689605 L766.02875,128.689605 L765.951868,123.785435 L764.824267,124.156561 C763.901685,123.891471 762.697203,123.599872 761.287703,123.599872 C757.904901,123.599872 755.777837,125.853139 755.777837,128.504042 C755.777837,131.28749 757.82802,132.37436 760.339493,133.302176 C762.569067,134.097447 764.286094,134.892718 764.286094,137.066458 C764.286094,138.92209 763.081612,140.247541 760.928921,140.27405 C759.288775,140.27405 758.033038,139.558306 757.110456,138.10031 L756.03411,135.475916 L755.419055,135.475916 L755.700955,139.982451 C757.110456,140.512631 758.801856,140.883758 760.775157,140.857249 Z M772.307434,140.512631 L780.405655,140.512631 L780.328773,140.088487 L779.329309,139.982451 C778.201708,139.876415 778.022317,139.796888 778.022317,139.584815 L778.022317,124.47467 L778.688627,124.47467 C781.020709,124.501179 782.404582,126.224266 783.147774,128.132916 L783.429674,129.060731 L784.044728,129.060731 L783.711574,123.944489 L769.206533,123.944489 L768.540223,129.08724 L769.23216,129.08724 L769.51406,128.132916 C770.257251,126.38332 771.666752,124.580706 774.075716,124.47467 L774.690771,124.47467 L774.690771,139.505288 C774.690771,139.71736 774.383243,139.902924 773.588798,139.982451 L772.384315,140.088487 L772.307434,140.512631 Z M785.428602,140.512631 L799.139197,140.512631 L799.805507,135.078281 L799.139197,135.078281 L798.882924,135.873552 C797.960342,138.444927 796.576469,139.929433 793.039904,139.955942 L790.91284,139.876415 L790.91284,132.321342 L791.681658,132.347851 C794.064996,132.453887 794.654423,132.878031 794.782559,134.442064 L794.885069,135.263844 L795.397614,135.290353 L796.038296,128.928186 L795.500123,128.928186 L795.218223,129.776475 C794.782559,131.234472 793.885605,131.685125 791.861049,131.764652 L790.91284,131.791161 L790.91284,124.527688 L792.629868,124.501179 C796.038296,124.47467 797.268406,125.455504 798.088479,128.504042 L798.319124,129.37884 L798.985434,129.37884 L798.806043,123.944489 L785.454229,123.944489 L785.531111,124.368634 L786.248675,124.47467 C787.42753,124.580706 787.581293,124.660233 787.581293,124.872305 L787.581293,139.505288 C787.581293,139.71736 787.248139,139.876415 786.428066,139.982451 L785.505484,140.088487 L785.428602,140.512631 Z M801.163753,140.512631 L801.240634,140.088487 L802.31698,139.982451 C802.983289,139.902924 803.444581,139.71736 803.444581,139.505288 L803.444581,124.872305 C803.444581,124.660233 803.290817,124.580706 802.111962,124.47467 L801.266262,124.368634 L801.18938,123.944489 L808.82631,123.91798 C813.15732,123.91798 815.335639,125.375977 815.335639,128.106406 C815.335639,130.147602 813.849257,131.738143 811.46592,132.321342 L814.797466,137.755692 C815.848185,139.45227 816.258221,139.876415 817.360194,140.00896 L817.770231,140.088487 L817.87274,140.512631 L812.491011,140.512631 L812.02972,139.584815 L808.211255,132.559923 C807.8781,132.480396 807.083655,132.37436 806.776127,132.241815 L806.776127,139.584815 C806.776127,139.796888 807.160536,139.902924 808.057491,139.982451 L808.980073,140.088487 L809.056955,140.512631 L801.163753,140.512631 Z M808.134373,131.923706 C810.415201,131.844179 811.799074,130.598255 811.799074,128.212443 C811.799074,125.853139 810.363947,124.421652 807.801218,124.47467 C807.749964,124.47467 806.776127,124.501179 806.776127,124.501179 L806.776127,131.711634 C807.083655,131.791161 807.826846,131.923706 808.134373,131.923706 Z M824.228306,140.857249 C827.893007,140.857249 830.276344,138.259364 830.276344,135.422898 C830.276344,132.37436 828.226162,131.181454 825.432788,130.174111 C823.382606,129.431858 821.716832,128.716114 821.716832,126.807464 C821.716832,125.349468 822.87006,124.18307 824.638342,124.18307 C825.689061,124.18307 826.457879,124.47467 827.072934,124.872305 L828.918098,128.689605 L829.481899,128.689605 L829.405017,123.785435 L828.277416,124.156561 C827.354834,123.891471 826.150352,123.599872 824.740851,123.599872 C821.35805,123.599872 819.230986,125.853139 819.230986,128.504042 C819.230986,131.28749 821.281168,132.37436 823.792642,133.302176 C826.022216,134.097447 827.739243,134.892718 827.739243,137.066458 C827.739243,138.92209 826.534761,140.247541 824.38207,140.27405 C822.741923,140.27405 821.486187,139.558306 820.563605,138.10031 L819.487259,135.475916 L818.872204,135.475916 L819.154104,139.982451 C820.563605,140.512631 822.255005,140.883758 824.228306,140.857249 Z M838.067038,146 L838.630838,146 L838.630838,122.751583 L838.067038,122.751583 L838.067038,146 Z M851.777633,140.857249 C855.442335,140.857249 857.825672,138.259364 857.825672,135.422898 C857.825672,132.37436 855.775489,131.181454 852.982116,130.174111 C850.931933,129.431858 849.26616,128.716114 849.26616,126.807464 C849.26616,125.349468 850.419387,124.18307 852.18767,124.18307 C853.238388,124.18307 854.007207,124.47467 854.622262,124.872305 L856.467426,128.689605 L857.031226,128.689605 L856.954344,123.785435 L855.826744,124.156561 C854.904162,123.891471 853.699679,123.599872 852.290179,123.599872 C848.907378,123.599872 846.780313,125.853139 846.780313,128.504042 C846.780313,131.28749 848.830496,132.37436 851.34197,133.302176 C853.571543,134.097447 855.288571,134.892718 855.288571,137.066458 C855.288571,138.92209 854.084089,140.247541 851.931397,140.27405 C850.291251,140.27405 849.035514,139.558306 848.112932,138.10031 L847.036586,135.475916 L846.421532,135.475916 L846.703432,139.982451 C848.112932,140.512631 849.804333,140.883758 851.777633,140.857249 Z M868.281603,140.883758 C863.233028,140.883758 859.670836,137.411075 859.670836,132.294833 C859.670836,127.576226 863.694319,123.599872 868.537875,123.599872 C873.560823,123.599872 877.148642,127.072554 877.148642,132.215306 C877.148642,136.960422 873.150786,140.883758 868.281603,140.883758 Z M868.486621,140.300559 C871.613149,140.300559 873.483941,137.649656 873.483941,132.294833 C873.483941,127.152081 871.408131,124.18307 868.332857,124.18307 C865.180702,124.18307 863.284283,126.860482 863.284283,132.188797 C863.284283,137.358057 865.360093,140.300559 868.486621,140.300559 Z M878.532515,140.512631 L891.320529,140.512631 L892.06372,134.654136 L891.397411,134.654136 L891.089883,135.528934 C889.731637,138.710017 888.655291,139.982451 885.451881,139.982451 L883.991126,139.876415 L883.991126,124.951832 C883.991126,124.73976 884.375535,124.554197 885.118727,124.501179 L886.374463,124.368634 L886.451345,123.944489 L878.558143,123.944489 L878.635024,124.368634 L879.378216,124.47467 C880.55707,124.580706 880.685207,124.686742 880.685207,124.898814 L880.685207,139.505288 C880.685207,139.690851 880.428934,139.876415 879.583234,139.955942 L878.609397,140.088487 L878.532515,140.512631 Z M893.524475,140.512631 L901.315168,140.512631 L901.238287,140.088487 L900.392586,139.982451 C899.264986,139.876415 899.085595,139.796888 899.085595,139.584815 L899.085595,124.951832 C899.085595,124.766269 899.367495,124.554197 900.213195,124.47467 L901.263914,124.368634 L901.340796,123.944489 L893.524475,123.944489 L893.601357,124.368634 L894.447057,124.47467 C895.625912,124.580706 895.779676,124.660233 895.779676,124.872305 L895.779676,139.505288 C895.779676,139.71736 895.446521,139.902924 894.652075,139.982451 L893.601357,140.088487 L893.524475,140.512631 Z M912.129881,140.857249 C913.872536,140.857249 915.973973,140.353577 916.922183,139.929433 L918.024156,139.929433 L918.792974,134.998754 L918.101038,134.998754 L917.152828,137.305039 C916.025228,139.18718 914.615728,140.27405 912.309272,140.27405 C908.977726,140.27405 906.543134,137.119476 906.543134,132.162288 C906.543134,127.602735 908.644571,124.18307 912.360527,124.18307 C913.7444,124.18307 914.897628,124.527688 915.563937,124.978341 L917.716629,129.405349 L918.357311,129.405349 L918.229174,123.91798 L916.38401,124.47467 C915.589564,124.050525 913.949418,123.573363 912.334899,123.573363 C906.543134,123.573363 902.929687,127.337645 902.929687,132.400869 C902.929687,137.437584 906.620016,140.857249 912.129881,140.857249 Z M924.328467,140.512631 L932.426688,140.512631 L932.349806,140.088487 L931.350342,139.982451 C930.222742,139.876415 930.043351,139.796888 930.043351,139.584815 L930.043351,124.47467 L930.70966,124.47467 C933.041743,124.501179 934.425616,126.224266 935.168807,128.132916 L935.450707,129.060731 L936.065762,129.060731 L935.732607,123.944489 L921.227566,123.944489 L920.561257,129.08724 L921.253193,129.08724 L921.535094,128.132916 C922.278285,126.38332 923.687785,124.580706 926.09675,124.47467 L926.711804,124.47467 L926.711804,139.505288 C926.711804,139.71736 926.404277,139.902924 925.609831,139.982451 L924.405349,140.088487 L924.328467,140.512631 Z M946.316675,140.883758 C941.2681,140.883758 937.705908,137.411075 937.705908,132.294833 C937.705908,127.576226 941.729391,123.599872 946.572947,123.599872 C951.595895,123.599872 955.183714,127.072554 955.183714,132.215306 C955.183714,136.960422 951.185858,140.883758 946.316675,140.883758 Z M946.521693,140.300559 C949.648221,140.300559 951.519013,137.649656 951.519013,132.294833 C951.519013,127.152081 949.443203,124.18307 946.367929,124.18307 C943.215774,124.18307 941.319355,126.860482 941.319355,132.188797 C941.319355,137.358057 943.395165,140.300559 946.521693,140.300559 Z M956.439451,140.512631 L956.516333,140.088487 L957.592679,139.982451 C958.258988,139.902924 958.720279,139.71736 958.720279,139.505288 L958.720279,124.872305 C958.720279,124.660233 958.566515,124.580706 957.38766,124.47467 L956.54196,124.368634 L956.465078,123.944489 L964.102008,123.91798 C968.433019,123.91798 970.611337,125.375977 970.611337,128.106406 C970.611337,130.147602 969.124955,131.738143 966.741618,132.321342 L970.073165,137.755692 C971.123883,139.45227 971.53392,139.876415 972.635893,140.00896 L973.045929,140.088487 L973.148438,140.512631 L967.766709,140.512631 L967.305418,139.584815 L963.486953,132.559923 C963.153799,132.480396 962.359353,132.37436 962.051825,132.241815 L962.051825,139.584815 C962.051825,139.796888 962.436235,139.902924 963.33319,139.982451 L964.255772,140.088487 L964.332654,140.512631 L956.439451,140.512631 Z M963.410071,131.923706 C965.690899,131.844179 967.074773,130.598255 967.074773,128.212443 C967.074773,125.853139 965.639645,124.421652 963.076917,124.47467 C963.025662,124.47467 962.051825,124.501179 962.051825,124.501179 L962.051825,131.711634 C962.359353,131.791161 963.102544,131.923706 963.410071,131.923706 Z M979.504004,140.857249 C983.168705,140.857249 985.552043,138.259364 985.552043,135.422898 C985.552043,132.37436 983.50186,131.181454 980.708486,130.174111 C978.658304,129.431858 976.992531,128.716114 976.992531,126.807464 C976.992531,125.349468 978.145758,124.18307 979.914041,124.18307 C980.964759,124.18307 981.733578,124.47467 982.348632,124.872305 L984.193797,128.689605 L984.757597,128.689605 L984.680715,123.785435 L983.553115,124.156561 C982.630532,123.891471 981.42605,123.599872 980.01655,123.599872 C976.633749,123.599872 974.506684,125.853139 974.506684,128.504042 C974.506684,131.28749 976.556867,132.37436 979.06834,133.302176 C981.297914,134.097447 983.014942,134.892718 983.014942,137.066458 C983.014942,138.92209 981.810459,140.247541 979.657768,140.27405 C978.017622,140.27405 976.761885,139.558306 975.839303,138.10031 L974.762957,135.475916 L974.147902,135.475916 L974.429802,139.982451 C975.839303,140.512631 977.530703,140.883758 979.504004,140.857249 Z" id="Hansen_Law_logo"></path>
        </g>
    </g>
</svg>