<?xml version="1.0" standalone="no"?>
<!DOCTYPE svg PUBLIC "-//W3C//DTD SVG 20010904//EN"
 "http://www.w3.org/TR/2001/REC-SVG-20010904/DTD/svg10.dtd">
<svg version="1.0" xmlns="http://www.w3.org/2000/svg"
 width="700.000000pt" height="700.000000pt" viewBox="0 0 700.000000 700.000000"
 preserveAspectRatio="xMidYMid meet">
<metadata>
Created by potrace 1.11, written by Peter Selinger 2001-2013
</metadata>
<g transform="translate(0.000000,700.000000) scale(0.100000,-0.100000)"
fill="#000000" stroke="none">
<path d="M25 6903 c4 -27 8 -49 9 -50 2 -2 48 -10 106 -18 25 -3 56 -8 70 -10
14 -2 54 -7 90 -10 91 -8 180 -25 213 -42 22 -11 27 -21 28 -51 0 -20 1 -819
1 -1775 l0 -1738 -21 -23 c-35 -37 -185 -73 -383 -91 -116 -11 -112 -9 -122
-72 l-6 -42 938 0 c873 0 938 2 937 17 -5 49 -18 89 -28 89 -24 1 -142 15
-147 18 -3 2 -36 6 -75 9 -66 7 -153 19 -202 30 -35 7 -61 25 -67 43 -2 10 -4
406 -4 881 l1 862 888 0 889 0 0 -864 0 -865 -26 -20 c-29 -23 -131 -55 -207
-66 -27 -3 -57 -8 -66 -10 -10 -2 -51 -6 -93 -9 -76 -7 -118 -13 -124 -18 -1
-2 -6 -24 -9 -50 l-6 -47 679 0 679 0 -1 1876 0 1876 27 22 c38 29 193 67 331
79 133 12 156 18 156 36 0 10 3 32 6 49 l6 31 -939 0 -940 0 10 -50 c5 -27 15
-50 21 -51 6 0 20 -2 31 -5 11 -2 44 -6 74 -9 30 -3 57 -7 60 -9 3 -2 41 -7
83 -10 42 -4 87 -9 100 -11 13 -3 39 -8 58 -11 40 -8 72 -22 82 -38 4 -6 8
-388 8 -848 l0 -838 -889 0 -888 0 -1 823 c0 684 2 826 14 844 26 41 162 78
364 99 36 3 74 7 85 9 11 1 27 3 36 4 10 1 19 18 25 51 l11 50 -940 0 -939 0
7 -47z"/>
<path d="M4166 3968 c2 -35 4 -877 4 -1872 1 -1729 0 -1809 -17 -1828 -10 -11
-29 -25 -43 -30 -32 -13 -140 -35 -209 -43 -30 -4 -61 -8 -70 -10 -9 -1 -48
-6 -88 -10 -40 -4 -76 -12 -81 -18 -6 -7 -13 -31 -17 -54 l-7 -42 1586 0
c1489 0 1586 1 1587 17 0 9 2 24 4 32 2 13 17 122 31 235 2 22 9 72 14 110 5
39 12 93 16 120 3 28 12 97 20 155 8 58 17 121 19 140 10 80 26 207 30 230 2
14 7 50 10 80 3 30 7 66 10 80 6 33 12 83 20 151 l6 55 -80 -1 c-44 0 -82 -3
-84 -5 -3 -3 -21 -52 -42 -110 -48 -135 -205 -456 -286 -585 -34 -55 -65 -102
-69 -105 -3 -3 -21 -25 -40 -50 -40 -53 -139 -152 -196 -195 -44 -35 -141 -95
-152 -95 -4 0 -20 -7 -37 -16 -75 -40 -209 -76 -365 -99 -88 -12 -411 -13
-510 -1 -19 2 -59 5 -87 5 l-53 1 3 1802 2 1802 34 23 c56 38 133 52 416 78
33 3 69 8 80 10 11 2 29 4 41 4 11 1 21 7 21 14 0 6 4 29 8 50 l7 37 -719 0
-720 0 3 -62z"/>
</g>
</svg>
